<svg width="50" height="50" viewBox="0 0 50 50" fill="none" xmlns="http://www.w3.org/2000/svg">
<path d="M41.7749 41.7749C37.5509 45.9993 31.7448 48.6405 25.3217 48.7381L26.9878 38.0774C29.8405 37.6386 32.3943 36.2944 34.3444 34.3444C36.2944 32.3943 37.6386 29.8405 38.0774 26.9878L48.7381 25.3217C48.6405 31.7448 45.9993 37.5509 41.7749 41.7749ZM8.13133 41.7749C3.90697 37.5509 1.26576 31.7448 1.1681 25.3217L11.8292 26.9878C12.2677 29.8405 13.6118 32.3947 15.5619 34.3444C17.5116 36.2944 20.0658 37.6386 22.9185 38.0774L24.5845 48.7381C18.1615 48.6405 12.3554 45.9993 8.13133 41.7749ZM8.13133 8.13133C12.3557 3.90697 18.1618 1.26576 24.5845 1.1681L22.9188 11.8292C20.0661 12.2677 17.5119 13.6118 15.5619 15.5619C13.6118 17.5119 12.2677 20.0658 11.8292 22.9185L1.1681 24.5845C1.26576 18.1615 3.90697 12.3554 8.13133 8.13133ZM41.7749 8.13133C45.9993 12.3554 48.6405 18.1615 48.7381 24.5845L38.077 22.9185C37.6386 20.0658 36.2944 17.5116 34.3444 15.5619C32.3943 13.6118 29.8405 12.2677 26.9878 11.8292L25.3217 1.1681C31.7448 1.26576 37.5509 3.90697 41.7749 8.13133ZM28.3158 28.1775L28.2116 28.194L24.9834 24.9658H48.8716L28.3158 28.1775ZM28.4863 28.4863L36.8652 27.1769C36.4096 29.6314 35.2168 31.827 33.5219 33.5219C31.827 35.2168 29.6314 36.4096 27.1769 36.8652L28.4863 28.4863ZM21.7122 28.2116L24.9404 24.9834V48.8716L21.7122 28.2116ZM21.4199 28.4863L22.7294 36.8652C20.2749 36.4096 18.0793 35.2168 16.3844 33.5219C14.6895 31.827 13.4963 29.6314 13.041 27.1769L21.4199 28.4863ZM21.6947 21.7122L24.9229 24.9404H1.03468L21.6947 21.7122ZM21.4199 21.4199L13.041 22.7294C13.4966 20.2745 14.6895 18.0793 16.3844 16.3844C18.0793 14.6895 20.2749 13.4966 22.7294 13.041L21.4199 21.4199ZM28.1775 21.5905L28.194 21.6947L24.9658 24.9229V1.034L28.1775 21.5905ZM28.4863 21.4199L27.1769 13.041C29.6314 13.4966 31.827 14.6895 33.5219 16.3844C35.2168 18.0793 36.4096 20.2749 36.8652 22.729L28.4863 21.4199ZM42.5974 7.30881C38.0818 2.79286 31.8435 0 24.9531 0C18.0628 0 11.8244 2.79286 7.30881 7.30881C2.79286 11.8244 0 18.0628 0 24.9531C0 31.8438 2.79286 38.0818 7.30881 42.5974C11.8244 47.1134 18.0628 49.9063 24.9531 49.9063C31.8435 49.9063 38.0818 47.1134 42.5974 42.5974C47.1131 38.0818 49.9063 31.8438 49.9063 24.9531C49.9063 18.0628 47.1131 11.8244 42.5974 7.30881Z" fill="#1C1C1B"/>
<path d="M29.357 3.71109L28.4863 3.55566L27.3633 9.84355L28.2339 9.99897L29.357 3.71109Z" fill="#1C1C1B"/>
<path d="M22.3327 9.79195L22.1147 9.02514L20.4387 9.50105L19.8486 7.42411L21.3816 6.98878L21.1735 6.25635L19.6406 6.69168L19.1217 4.86474L20.798 4.38883L20.5876 3.64746L18.0605 4.3651L19.8057 10.5099" fill="#1C1C1B"/>
<path d="M9.61362 10.6578C9.85708 10.4023 10.1604 10.3459 10.5218 10.4886C10.8828 10.6313 11.3972 11.0223 12.064 11.6577C12.7483 12.31 13.1675 12.8093 13.3229 13.157C13.4783 13.5026 13.4343 13.8041 13.1926 14.0572C12.9481 14.3141 12.6403 14.3684 12.2686 14.224C11.8965 14.0796 11.3821 13.6931 10.7229 13.0645C10.3997 12.7564 10.1335 12.4754 9.92345 12.2217C9.71541 11.9686 9.56961 11.7554 9.48777 11.5817C9.32891 11.2203 9.37086 10.9122 9.61362 10.6578ZM10.1205 13.7247C10.9657 14.5304 11.6713 15.0018 12.239 15.14C12.8078 15.2769 13.3198 15.1053 13.7764 14.6266C14.2331 14.1476 14.3789 13.6291 14.2128 13.0717C14.0477 12.5136 13.5419 11.8321 12.6946 11.0243C11.8463 10.2156 11.1373 9.74345 10.5675 9.60521C9.99772 9.46732 9.48674 9.63547 9.03628 10.1076C8.57997 10.5866 8.43521 11.1086 8.60232 11.6732C8.77082 12.2368 9.2763 12.9201 10.1205 13.7247Z" fill="#1C1C1B"/>
<path d="M39.5309 11.2132L37.936 13.5477L37.1183 12.6857L39.5309 11.2132ZM35.3729 13.7176L36.4904 13.0701L37.523 14.1536L36.8295 15.2457L37.4512 15.8956L41.0132 10.3749L40.439 9.77246L34.7539 13.0667" fill="#1C1C1B"/>
<path d="M38.1223 17.1053L42.1015 15.0672L38.9111 18.6451L39.29 19.3844L44.9751 16.4726L44.5931 15.7264L40.6459 17.748L43.8029 14.1804L43.4257 13.4473L37.7402 16.3591" fill="#1C1C1B"/>
<path d="M45.1647 19.6788L45.2679 20.1262C45.3814 20.6183 45.2903 21.0003 44.9963 21.273C44.7019 21.5457 44.1222 21.7819 43.2594 21.981C42.3953 22.1804 41.7698 22.2193 41.3816 22.0976C40.9933 21.9762 40.7434 21.676 40.6326 21.196L40.5295 20.7486L45.1647 19.6788ZM39.7884 21.2032C39.9896 22.0752 40.3641 22.635 40.9129 22.8816C41.46 23.1274 42.3066 23.1178 43.4516 22.8537C44.5936 22.59 45.3573 22.2265 45.739 21.7633C46.1207 21.2988 46.2122 20.6331 46.0124 19.7669L45.7493 18.627L39.5254 20.0633" fill="#1C1C1B"/>
<path d="M29.5609 10.3253C29.7214 10.4446 29.8844 10.5378 30.0488 10.6025C30.5144 10.7861 30.9552 10.7899 31.3692 10.6145C31.7836 10.4391 32.08 10.1228 32.2612 9.66303C32.3871 9.34324 32.429 9.02758 32.3857 8.71535C32.342 8.40278 32.199 8.04138 31.9562 7.62771L31.8644 7.4795C31.4487 6.77596 31.308 6.25363 31.4432 5.91045C31.5408 5.66322 31.6973 5.49713 31.9108 5.41117C32.1268 5.32451 32.3627 5.33242 32.6226 5.43489C32.7684 5.49232 32.906 5.57897 33.039 5.69382C33.1102 5.75572 33.1752 5.82139 33.234 5.88948C33.2935 5.95619 33.3526 6.03253 33.4121 6.12021L33.7264 5.32279C33.5937 5.16152 33.4462 5.02466 33.2863 4.91188C33.1257 4.80012 32.951 4.70728 32.7608 4.63266C32.3283 4.46176 31.9077 4.46932 31.4965 4.65398C31.0859 4.83691 30.7922 5.15155 30.6162 5.5972C30.4958 5.90289 30.4601 6.21134 30.5103 6.52322C30.5591 6.83476 30.7063 7.20235 30.9483 7.62668L31.0498 7.80824C31.4394 8.48186 31.5645 8.99353 31.4267 9.34359C31.3324 9.58223 31.1832 9.7435 30.98 9.82706C30.775 9.91165 30.5474 9.90339 30.2974 9.80505C30.1544 9.74866 30.0089 9.65753 29.8617 9.53202C29.7149 9.40686 29.5698 9.25177 29.4264 9.06678L29.1035 9.88655C29.2483 10.0592 29.3999 10.2057 29.5609 10.3253Z" fill="#1C1C1B"/>
<path d="M7.26098 13.6721L6.55125 13.3086L5.03516 16.2686L5.74489 16.632L6.2992 15.5496L11.2749 18.0979L11.6824 17.3026L6.70668 14.7542" fill="#1C1C1B"/>
<path d="M34.5524 12.9353L34.9826 12.2641L33.384 11.2391L36.401 6.53295L35.6566 6.05566L32.209 11.4333" fill="#1C1C1B"/>
<path d="M9.0459 19.0826C8.71579 18.9887 8.39737 18.9781 8.09064 19.0523C7.78392 19.1263 7.43868 19.3044 7.05115 19.5867L6.91222 19.6926C6.25338 20.1757 5.74756 20.3676 5.39269 20.2665C5.13686 20.194 4.95633 20.055 4.84973 19.8508C4.7421 19.6445 4.72697 19.4089 4.80297 19.14C4.84595 18.9894 4.91816 18.844 5.0196 18.7002C5.07393 18.6232 5.13308 18.5524 5.19497 18.4867C5.25549 18.421 5.32564 18.3546 5.40714 18.2869L4.58255 18.0527C4.43503 18.2009 4.31331 18.3612 4.21702 18.5314C4.12177 18.7023 4.04647 18.8852 3.99076 19.0819C3.86353 19.5293 3.91271 19.9471 4.1369 20.3377C4.35973 20.7283 4.70153 20.9897 5.16265 21.1207C5.47866 21.2104 5.78917 21.2156 6.09452 21.1348C6.39952 21.0553 6.75095 20.8728 7.14949 20.5901L7.32005 20.4708C7.95172 20.0165 8.44861 19.8419 8.81069 19.9443C9.05759 20.0145 9.23261 20.1475 9.33577 20.3411C9.43996 20.5368 9.45475 20.7644 9.38116 21.0227C9.33921 21.1702 9.26287 21.3242 9.15284 21.4831C9.04246 21.6416 8.90251 21.8012 8.73264 21.9621L9.58026 22.2028C9.73775 22.0415 9.86842 21.8761 9.97158 21.7042C10.0747 21.5326 10.1514 21.361 10.1996 21.1912C10.3364 20.7098 10.2965 20.2707 10.0809 19.8759C9.86567 19.4811 9.52146 19.2174 9.0459 19.0826Z" fill="#1C1C1B"/>
<path d="M16.4947 12.1685L14.2665 8.29315L17.995 11.3061L18.7147 10.8921L15.5305 5.35449L14.804 5.77229L17.0147 9.61668L13.2982 6.63676L12.584 7.04905L15.7682 12.5863" fill="#1C1C1B"/>
<path d="M42.6454 36.2356L43.3552 36.5991L44.8836 33.6147L44.1739 33.2512L43.6151 34.3423L38.6394 31.7939L38.2285 32.5958L43.2042 35.1442" fill="#1C1C1B"/>
<path d="M33.3675 37.763L35.5957 41.6384L31.8548 38.6327L31.1289 39.0501L34.3131 44.5877L35.0455 44.1665L32.8352 40.3221L36.564 43.2948L37.2841 42.879L34.1002 37.3418" fill="#1C1C1B"/>
<path d="M15.4329 37.0215L15.0027 37.693L16.6147 38.7264L13.5977 43.4325L14.3483 43.9139L17.7955 38.5362" fill="#1C1C1B"/>
<path d="M10.3891 38.7071L11.9805 36.3688L12.8051 37.2381L10.3891 38.7071ZM14.5533 36.209L13.434 36.8547L12.3924 35.7623L13.0843 34.6684L12.4574 34.0127L8.9043 39.543L9.48336 40.1503L15.1771 36.8654" fill="#1C1C1B"/>
<path d="M27.4746 40.1415L27.6926 40.9086L29.3827 40.4286L29.9724 42.5055L28.4268 42.9446L28.6348 43.6771L30.1805 43.2379L30.6994 45.0649L29.0093 45.5449L29.2197 46.2863L31.7677 45.5625L30.0226 39.418" fill="#1C1C1B"/>
<path d="M20.5508 46.1961L21.4287 46.3529L22.5517 40.065L21.6738 39.9082L20.5508 46.1961Z" fill="#1C1C1B"/>
<path d="M20.2419 39.541C20.0796 39.4209 19.9153 39.3271 19.7499 39.2617C19.2801 39.0767 18.8362 39.0719 18.4198 39.2463C18.003 39.4206 17.7056 39.7366 17.5244 40.1964C17.3982 40.5158 17.3569 40.8318 17.4016 41.1447C17.4463 41.4576 17.5914 41.8197 17.8373 42.2344L17.9298 42.3833C18.3507 43.0886 18.4937 43.6123 18.3586 43.9551C18.2609 44.2024 18.1041 44.3684 17.8892 44.4537C17.6719 44.54 17.4343 44.5311 17.1719 44.4279C17.0251 44.3698 16.8862 44.2832 16.7521 44.1676C16.6802 44.1057 16.6145 44.0397 16.555 43.9713C16.4948 43.9042 16.435 43.8276 16.3752 43.7395L16.0605 44.5369C16.195 44.6992 16.3435 44.8364 16.5055 44.9499C16.6675 45.062 16.8435 45.1556 17.0351 45.2309C17.4714 45.4031 17.8951 45.3966 18.3084 45.213C18.7214 45.0307 19.0167 44.7171 19.1925 44.2711C19.3128 43.9654 19.3482 43.657 19.2966 43.3444C19.2464 43.0325 19.0972 42.6639 18.8524 42.2386L18.7492 42.0567C18.3551 41.381 18.2276 40.8686 18.3658 40.5186C18.4597 40.2796 18.6099 40.1186 18.8142 40.0358C19.0202 39.9515 19.2499 39.9605 19.5016 40.0595C19.6457 40.1166 19.7928 40.208 19.941 40.3339C20.0892 40.4598 20.2361 40.6155 20.3808 40.8009L20.7041 39.9814C20.5576 39.8085 20.4046 39.661 20.2419 39.541Z" fill="#1C1C1B"/>
<path d="M40.867 30.7962C41.1978 30.8901 41.5158 30.9001 41.8229 30.8248C42.13 30.7495 42.4759 30.5693 42.8645 30.2835L43.0037 30.1766C43.664 29.6883 44.1705 29.4944 44.5253 29.5951C44.7812 29.6677 44.9617 29.8076 45.068 30.0129C45.1752 30.2206 45.1897 30.4582 45.1127 30.7288C45.0697 30.8808 44.9971 31.0277 44.8953 31.1724C44.8407 31.2505 44.7815 31.3223 44.7193 31.3884C44.6584 31.4544 44.5883 31.5214 44.5068 31.5902L45.3314 31.824C45.4792 31.6748 45.6009 31.5132 45.6983 31.3409C45.7935 31.1686 45.8692 30.984 45.9255 30.7859C46.0535 30.3348 46.0057 29.9142 45.7818 29.5208C45.56 29.1278 45.2186 28.8651 44.7574 28.7341C44.4414 28.6443 44.1306 28.6399 43.8249 28.722C43.5195 28.8025 43.1674 28.9872 42.7682 29.2729L42.5973 29.3933C41.9642 29.8527 41.4667 30.0301 41.1046 29.9273C40.8577 29.8568 40.683 29.7237 40.5798 29.5288C40.476 29.3317 40.4619 29.1024 40.5358 28.8421C40.5781 28.6928 40.6548 28.5377 40.7655 28.3775C40.8763 28.2176 41.0166 28.0563 41.1871 27.8937L40.3395 27.6533C40.1817 27.816 40.0503 27.9831 39.9468 28.1564C39.8433 28.3297 39.7663 28.5027 39.7174 28.6739C39.5796 29.1591 39.6184 29.6016 39.8333 29.9988C40.0479 30.3963 40.3918 30.6614 40.867 30.7962Z" fill="#1C1C1B"/>
<path d="M40.2796 39.2627C40.0341 39.5202 39.7291 39.5783 39.367 39.4363C39.0053 39.2946 38.4902 38.9044 37.8237 38.2685C37.1395 37.6162 36.7206 37.1166 36.5659 36.7683C36.4115 36.422 36.4569 36.1187 36.7003 35.8632C36.9472 35.6043 37.2564 35.5486 37.6291 35.692C38.0015 35.8354 38.5166 36.2215 39.1758 36.8501C39.499 37.1582 39.7649 37.4395 39.975 37.6933C40.1826 37.9467 40.3281 38.1602 40.4096 38.3342C40.5678 38.6967 40.5241 39.0061 40.2796 39.2627ZM39.7834 36.1844C38.9382 35.3787 38.2316 34.9083 37.6625 34.7718C37.092 34.6367 36.5769 34.811 36.1168 35.2941C35.6564 35.7769 35.5078 36.2982 35.6722 36.8573C35.8359 37.4171 36.3403 38.0994 37.1879 38.9071C38.0363 39.7159 38.746 40.1873 39.3175 40.3238C39.889 40.46 40.4027 40.2891 40.857 39.8128C41.3171 39.3297 41.4646 38.8053 41.2988 38.239C41.1324 37.6737 40.6273 36.989 39.7834 36.1844Z" fill="#1C1C1B"/>
<path d="M4.80229 30.4896L4.6981 30.0388C4.58359 29.5426 4.67403 29.1578 4.96769 28.8834C5.26169 28.6094 5.84144 28.3721 6.7042 28.173C7.56832 27.9736 8.19381 27.9357 8.58238 28.0588C8.97094 28.1823 9.22162 28.4849 9.33337 28.969L9.43757 29.4202L4.80229 30.4896ZM10.1779 28.9632C9.97502 28.0839 9.59953 27.5193 9.05003 27.2693C8.50226 27.0211 7.65498 27.029 6.51026 27.293C5.36829 27.5568 4.60491 27.922 4.22391 28.3879C3.84291 28.8556 3.75247 29.5264 3.95398 30.3995L4.2191 31.549L10.4434 30.1127" fill="#1C1C1B"/>
<path d="M11.8527 32.9377L7.87387 34.9754L11.0574 31.3848L10.6753 30.6396L4.99023 33.5515L5.37571 34.3039L9.32257 32.2823L6.17244 35.8626L6.55275 36.6019L12.2378 33.6901" fill="#1C1C1B"/>
</svg>
